<?xml version="1.0" encoding="UTF-8"?>
<svg id="Layer_1" data-name="Layer 1" xmlns="http://www.w3.org/2000/svg" xmlns:xlink="http://www.w3.org/1999/xlink" viewBox="0 0 1000 1000">
  <defs>
    <style>
      .cls-1 {
        fill: url(#linear-gradient);
      }

      .cls-1, .cls-2, .cls-3 {
        stroke-width: 0px;
      }

      .cls-4 {
        fill: none;
        stroke: #d5b76c;
        stroke-width: .8px;
      }

      .cls-2 {
        fill: #fff;
      }

      .cls-3 {
        fill: #c1a86e;
      }
    </style>
    <linearGradient id="linear-gradient" x1="-1071.46" y1="1000" x2="-1069.76" y2="998.3" gradientTransform="translate(447742.6 266956.2) scale(417.74 -266.69)" gradientUnits="userSpaceOnUse">
      <stop offset="0" stop-color="#d4c08a"/>
      <stop offset=".06" stop-color="#d7c38e"/>
      <stop offset=".12" stop-color="#e1cf9b"/>
      <stop offset=".19" stop-color="#f2e1b0"/>
      <stop offset=".2" stop-color="#f6e6b6"/>
      <stop offset=".24" stop-color="#e6d3a0"/>
      <stop offset=".3" stop-color="#d1bb85"/>
      <stop offset=".36" stop-color="#c5ad74"/>
      <stop offset=".4" stop-color="#c1a86f"/>
      <stop offset=".43" stop-color="#c4ac73"/>
      <stop offset=".47" stop-color="#cfb882"/>
      <stop offset=".51" stop-color="#e1cd9a"/>
      <stop offset=".55" stop-color="#f6e6b6"/>
      <stop offset=".56" stop-color="#eeddac"/>
      <stop offset=".57" stop-color="#ddc993"/>
      <stop offset=".59" stop-color="#cfb980"/>
      <stop offset=".62" stop-color="#c6ae73"/>
      <stop offset=".64" stop-color="#c0a76b"/>
      <stop offset=".7" stop-color="#bfa669"/>
      <stop offset=".85" stop-color="#a18a48"/>
      <stop offset="1" stop-color="#8e7838"/>
    </linearGradient>
  </defs>
  <path class="cls-1" d="M807.62,483.19c-24.34,20.48-51.36,31.32-82.5,41.67-5.86,2.06-11.72,4.12-17.77,6.25-48.26,7.99-96.05,5.28-143.17-6.25,23.23,58.1,75.8,128.5,139.49,157.14,22.96,7.46,56.9,23.3,80.57,28.73-.32.85-11.81,10.94-32.29,14.13-7.86,1.07-16.24,1.66-25.14,1.79-4.35.14-8.67.27-13.14.41-57.91-8.27-114.61-54.45-148.03-95.28-23.38-30.78-43.07-63.69-60.48-97.39-3.37,5.28-6.75,10.58-10.23,16.04-25.77,39.95-51.5,78.15-86.35,112.55-3.46,3.46-6.92,6.92-10.5,10.48-30.74,29.07-62.42,52.34-108.86,53.8-21.08-.99-44.04-11.35-60.43-23.96,4.09-.99,16.29-4.21,20.5-5.23,93.07-24.64,144.64-87.12,191.48-158.92,5.35-7.94,10.72-15.88,16.1-23.81-3.12.97-6.24,1.96-9.44,2.97-4.19,1.28-8.38,2.56-12.7,3.89-4.11,1.26-8.21,2.54-12.44,3.85-62.41,16.34-125.89,11.93-185.4-10.7-41.77-21.08-75.39-51.89-88.67-93.37-7.11-31.94-6.36-58.83,11.59-87.34.61-.97,1.31-1.96,2.05-2.86,9.44-12,19.34-21.18,32.12-30.73l7-5.71c.82-.68,1.67-1.33,2.56-1.93,44-29.77,105.15-23.69,153.12-4.67,52.69,23.33,92.37,53.85,125.79,94.4,12.25,14.86,37.02,15.49,50.19,1.26,24.9-25.8,51.33-51.31,81.56-71.17,30.25-19.85,64.32-34.05,104.52-37.17,34.7-1.26,62.31.66,90.39,19,1.23.8,2.42,1.7,3.51,2.62,24.27,20.6,39.32,40.68,43.25,71.15,1.06,50.33-10.67,77.42-48.26,114.37h0Z"/>
  <path class="cls-4" d="M807.62,483.19c-24.34,20.48-51.36,31.32-82.5,41.67-5.86,2.06-11.72,4.12-17.77,6.25-48.26,7.99-96.05,5.28-143.17-6.25,23.23,58.1,75.8,128.5,139.49,157.14,22.96,7.46,56.9,23.3,80.57,28.73-.32.85-11.81,10.94-32.29,14.13-7.86,1.07-16.24,1.66-25.14,1.79-4.35.14-8.67.27-13.14.41-57.91-8.27-114.61-54.45-148.03-95.28-23.38-30.78-43.07-63.69-60.48-97.39-3.37,5.28-6.75,10.58-10.23,16.04-25.77,39.95-51.5,78.15-86.35,112.55-3.46,3.46-6.92,6.92-10.5,10.48-30.74,29.07-62.42,52.34-108.86,53.8"/>
  <path class="cls-2" d="M770.39,332.59c20.69,17.02,28.41,31.27,32.53,55.95-4.31,27.76-19.53,46.75-41.91,66.07-61.62,35.62-117.68,38.8-189.78,25.31-21.13-4.32-36-8.38-44.6-12.2,10.62-20.98,26.59-37.29,42.89-54.98,8.08-8.79,15.87-17.79,23.5-26.88,44.68-42.5,112-80.71,177.37-53.27h-.02Z"/>
  <path class="cls-2" d="M403.9,385.86c7.63,9.1,15.42,18.1,23.5,26.88,16.31,17.69,32.28,34,42.89,54.98-8.6,3.82-23.47,7.88-44.6,12.2-72.1,13.51-128.16,10.33-189.78-25.31-22.38-19.33-37.59-38.31-41.91-66.07,4.12-24.68,11.84-38.94,32.53-55.95,65.37-27.44,132.69,10.77,177.37,53.27h-.02Z"/>
  <path class="cls-3" d="M525.13,662l24.64,12.85c5.2,2.71,4.72,9.56-.84,12.07l-26.37,11.87c-1.35.61-2.48,1.53-3.28,2.68l-15.53,22.33c-3.28,4.71-11.01,4.57-13.62-.26l-12.37-22.87c-.63-1.17-1.64-2.14-2.89-2.79l-24.64-12.85c-5.2-2.71-4.72-9.56.84-12.07l26.37-11.87c1.35-.61,2.48-1.53,3.28-2.68l15.53-22.33c3.28-4.71,11.01-4.57,13.62.26l12.37,22.87c.63,1.17,1.64,2.14,2.89,2.79Z"/>
</svg>