<?xml version="1.0" encoding="UTF-8"?>
<svg id="Layer_1" data-name="Layer 1" xmlns="http://www.w3.org/2000/svg" xmlns:xlink="http://www.w3.org/1999/xlink" viewBox="0 0 1000 1000">
  <defs>
    <style>
      .cls-1 {
        fill: none;
        stroke: #d5b76c;
        stroke-width: .8px;
      }

      .cls-2 {
        fill: #1e2a38;
      }

      .cls-2, .cls-3, .cls-4, .cls-5 {
        stroke-width: 0px;
      }

      .cls-3 {
        fill: #fff;
      }

      .cls-4 {
        fill: #c1a86e;
      }

      .cls-5 {
        fill: url(#New_Gradient_Swatch_1);
      }
    </style>
    <linearGradient id="New_Gradient_Swatch_1" data-name="New Gradient Swatch 1" x1="-2179.22" y1="999.41" x2="-2178.66" y2="998.86" gradientTransform="translate(910372.41 266956.2) scale(417.74 -266.69)" gradientUnits="userSpaceOnUse">
      <stop offset="0" stop-color="#d4c08a"/>
      <stop offset=".06" stop-color="#d7c38e"/>
      <stop offset=".12" stop-color="#e1cf9b"/>
      <stop offset=".19" stop-color="#f2e1b0"/>
      <stop offset=".2" stop-color="#f6e6b6"/>
      <stop offset=".24" stop-color="#e6d3a0"/>
      <stop offset=".3" stop-color="#d1bb85"/>
      <stop offset=".36" stop-color="#c5ad74"/>
      <stop offset=".4" stop-color="#c1a86f"/>
      <stop offset=".43" stop-color="#c4ac73"/>
      <stop offset=".47" stop-color="#cfb882"/>
      <stop offset=".51" stop-color="#e1cd9a"/>
      <stop offset=".55" stop-color="#f6e6b6"/>
      <stop offset=".56" stop-color="#eeddac"/>
      <stop offset=".57" stop-color="#ddc993"/>
      <stop offset=".59" stop-color="#cfb980"/>
      <stop offset=".62" stop-color="#c6ae73"/>
      <stop offset=".64" stop-color="#c0a76b"/>
      <stop offset=".7" stop-color="#bfa669"/>
      <stop offset=".85" stop-color="#a18a48"/>
      <stop offset="1" stop-color="#8e7838"/>
    </linearGradient>
  </defs>
  <g>
    <path class="cls-2" d="M311.94,559.33c-3.9,0-7.62-.57-11.14-1.71-3.52-1.14-6.4-2.86-8.64-5.14-2.24-2.29-3.36-5.14-3.36-8.57s1.55-6.71,4.64-9.57c3.09-2.86,7.5-4.28,13.21-4.28,6,0,11.68,1.36,17.06,4.07,5.38,2.71,11.07,5.64,17.06,8.78,5.04-4.85,9.54-10.49,13.49-16.92,3.95-6.43,7.76-13.21,11.42-20.35,3.66-7.14,7.45-14.25,11.35-21.35,3.9-7.09,8.28-13.68,13.14-19.77.86-1.05,1.71-2.12,2.57-3.21.86-1.09,1.76-2.16,2.71-3.21-5.14-3.04-10.66-5.4-16.56-7.07-5.9-1.66-11.99-2.5-18.28-2.5-7.81,0-15.04,1-21.7,3-6.66,2-12.45,4.69-17.35,8.07-4.9,3.38-8.73,7.19-11.49,11.42-2.76,4.24-4.14,8.59-4.14,13.06,0,4,.83,7.31,2.5,9.92,1.67,2.62,3.78,4.55,6.35,5.78,2.57,1.24,5.09,1.86,7.57,1.86,3.33,0,6.19-.64,8.57-1.93,2.38-1.28,4.33-2.88,5.86-4.78,1.52-1.9,2.66-3.76,3.43-5.57.76-1.81,1.19-3.28,1.28-4.43,0-.66.43-1,1.28-1,1.33,0,1.86.81,1.57,2.43-.48,3.81-1.9,7.12-4.28,9.92-2.38,2.81-5.24,5-8.57,6.57-3.33,1.57-6.76,2.36-10.28,2.36-4.19,0-8-.79-11.42-2.36-3.43-1.57-6.16-3.95-8.21-7.14-2.05-3.19-3.07-7.11-3.07-11.78,0-6.19,1.66-11.73,5-16.63,3.33-4.9,7.9-9.07,13.71-12.49,5.8-3.43,12.47-6.04,19.99-7.85,7.52-1.81,15.47-2.71,23.84-2.71,6.47,0,12.99.79,19.56,2.36,6.57,1.57,12.8,3.93,18.71,7.07,2.47-2.76,5.02-5.21,7.64-7.35,2.62-2.14,5.31-3.78,8.07-4.93,1.24-.48,2.24-.71,3-.71.57,0,.86.14.86.43,0,.48-1.1,1.67-3.28,3.57-1.24,1.14-2.71,2.88-4.43,5.21-1.71,2.33-3.48,4.88-5.28,7.64,5.71,3.71,10.78,8.21,15.21,13.49,4.43,5.28,7.92,11.28,10.49,17.99,2.57,6.71,3.85,14.16,3.85,22.35s-1.38,14.97-4.14,20.92c-2.76,5.95-6.52,10.88-11.28,14.78-4.76,3.9-10.23,6.83-16.42,8.78-6.19,1.95-12.71,2.93-19.56,2.93-8.09,0-15.59-1.1-22.49-3.28-6.9-2.19-13.3-4.66-19.2-7.42-4.67,3.71-9.5,6.52-14.49,8.42-5,1.9-10.31,2.86-15.92,2.86ZM311.94,554.9c4.85.29,9.59-.6,14.21-2.64,4.62-2.05,8.45-4.26,11.49-6.64-5.71-2.76-10.97-5.28-15.78-7.57-4.81-2.28-9.26-3.43-13.35-3.43-3.33,0-5.9.98-7.71,2.93-1.81,1.95-2.71,4.12-2.71,6.5,0,3.05,1.21,5.57,3.64,7.57,2.43,2,5.83,3.09,10.21,3.28ZM396.18,472.8c-2,3.14-4.43,7.12-7.28,11.92-2.86,4.81-6.05,10.02-9.57,15.63-3.52,5.62-7.19,11.23-10.99,16.85-3.81,5.62-7.64,10.88-11.49,15.78-3.86,4.9-7.59,9.02-11.21,12.35,5.04,2.48,10.61,4.62,16.7,6.43,6.09,1.81,12.99,2.71,20.7,2.71,8.76,0,16.37-1.83,22.84-5.5,6.47-3.66,11.52-8.66,15.14-14.99,3.62-6.33,5.43-13.49,5.43-21.49,0-10.38-2.19-19.82-6.57-28.34-4.38-8.52-10.23-15.63-17.56-21.35-1.24,2-2.38,3.88-3.43,5.64-1.05,1.76-1.95,3.21-2.71,4.36Z"/>
    <path class="cls-2" d="M442.45,525.2c.76-1.62,1.76-4.21,3-7.78,1.24-3.57,2.52-7.54,3.86-11.92,1.33-4.38,2.33-8.52,3-12.42.29-1.52.81-2.64,1.57-3.36.76-.71,1.57-1.07,2.43-1.07,1.24,0,2.38.6,3.43,1.79,1.05,1.19,1.57,2.88,1.57,5.07,0,2.67-.79,4.95-2.36,6.85-1.57,1.9-3.5,3.71-5.78,5.43.95.1,1.95.17,3,.21,1.05.05,2.19.07,3.43.07,4.47,0,8.9-.29,13.28-.86.19.57.29,1,.29,1.28,0,1.24-.36,2.81-1.07,4.71-.71,1.9-1.45,3.62-2.21,5.14-.38.86-1.14,2.4-2.28,4.64-1.14,2.24-2.38,4.76-3.71,7.57-1.34,2.81-2.45,5.57-3.36,8.28-.91,2.71-1.36,5.02-1.36,6.93,0,2.48.95,3.71,2.86,3.71,1.81,0,4.33-2.12,7.57-6.35,3.24-4.23,6.47-10.07,9.71-17.49,1.14,0,1.71.43,1.71,1.28-1.05,2.57-2.36,5.38-3.93,8.42-1.57,3.05-3.31,5.93-5.21,8.64-1.9,2.71-3.95,4.95-6.14,6.71-2.19,1.76-4.48,2.64-6.85,2.64-1.81,0-3.62-.73-5.43-2.21-1.81-1.48-2.71-3.88-2.71-7.21,0-2.95.57-5.83,1.71-8.64,1.14-2.81,2.43-5.45,3.86-7.93,1.43-2.47,2.71-4.66,3.85-6.57,1.14-1.9,1.71-3.43,1.71-4.57,0-1.71-1.07-2.95-3.21-3.71s-4.93-1.19-8.35-1.29c-1.71,4.38-3,7.62-3.86,9.71-.86,2.09-1.67,4.09-2.43,6-1.52,0-2.05-.57-1.57-1.71Z"/>
    <path class="cls-2" d="M489.56,553.76c-3.52,0-6.69-1.14-9.5-3.43-2.81-2.29-4.21-5.76-4.21-10.42,0-3.9.88-8.04,2.64-12.42,1.76-4.38,4.09-8.5,7-12.35,2.9-3.86,6.14-7,9.71-9.42,3.57-2.43,7.16-3.64,10.78-3.64,1.81,0,3.57.53,5.28,1.57,1.71,1.05,2.57,2.86,2.57,5.43,0,2.38-.91,5-2.71,7.85-1.81,2.86-4.38,5.52-7.71,8-1.43,1.05-3.24,2.05-5.43,3-2.19.95-4.38,1.74-6.57,2.36-2.19.62-4,.93-5.43.93-.48,1.14-.93,2.67-1.36,4.57-.43,1.9-.64,3.86-.64,5.85,0,2.38.48,4.52,1.43,6.43.95,1.9,2.71,2.86,5.28,2.86,3.14,0,6.07-.9,8.78-2.71,2.71-1.81,5.14-4.09,7.28-6.85,2.14-2.76,3.97-5.57,5.5-8.42,1.52-2.86,2.71-5.28,3.57-7.28,1.14,0,1.71.43,1.71,1.28-1.24,2.67-2.64,5.57-4.21,8.71-1.57,3.14-3.43,6.07-5.57,8.78s-4.71,4.95-7.71,6.71c-3,1.76-6.5,2.64-10.49,2.64ZM486.99,528.63c1.33,0,3.57-.5,6.71-1.5,3.14-1,6-2.59,8.57-4.78,2.47-2.19,4.38-4.59,5.71-7.21,1.33-2.62,2-4.83,2-6.64,0-2.09-.76-3.14-2.29-3.14-1.14,0-2.71.76-4.71,2.29-2,1.52-4.48,4.09-7.43,7.71-1.81,2.28-3.52,4.76-5.14,7.42-1.62,2.67-2.76,4.62-3.43,5.85Z"/>
    <path class="cls-2" d="M546.82,553.61c-2.19,0-4.12-.62-5.78-1.86-1.67-1.24-2.5-3.76-2.5-7.57,0-1.62.12-3.14.36-4.57.24-1.43.55-2.95.93-4.57-.86,1.43-2.05,3.19-3.57,5.28-1.52,2.09-3.21,4.14-5.07,6.14-1.86,2-3.76,3.66-5.71,5-1.95,1.34-3.78,2-5.5,2-2.48,0-4.47-1.12-6-3.36-1.52-2.23-2.29-5.16-2.29-8.78,0-3.9.9-8.09,2.71-12.56,1.81-4.47,4.28-8.76,7.43-12.85,3.14-4.09,6.76-7.43,10.85-9.99,4.09-2.57,8.38-3.86,12.85-3.86,2.19,0,4.28.36,6.28,1.07,2,.71,3.76,1.88,5.28,3.5.66.67,1,1.43,1,2.29,0,.57-.24,1.05-.71,1.43-.48.38-1.1.48-1.86.29-1.05-3.33-3.28-5-6.71-5-1.62,0-3.48.52-5.57,1.57-2.57,1.34-5.31,3.45-8.21,6.35-2.9,2.9-5.62,6.19-8.14,9.85-2.52,3.66-4.59,7.35-6.21,11.07-1.62,3.71-2.43,7.09-2.43,10.14s1.19,4.71,3.57,4.71c2.09,0,4.26-1,6.5-3,2.24-2,4.38-4.5,6.43-7.5,2.05-3,3.93-5.97,5.64-8.92,1.71-2.95,3.05-5.33,4-7.14,1.43-2.57,2.76-4.71,4-6.43,1.24-1.71,3-2.57,5.28-2.57,1.05,0,2.09.14,3.14.43,1.05.29,2.14.33,3.28.14-2.86,2.86-5.35,6.24-7.5,10.14-2.14,3.9-3.78,7.73-4.93,11.49-1.14,3.76-1.71,6.92-1.71,9.5,0,2.86.95,4.28,2.86,4.28,1.52,0,3.16-.86,4.92-2.57,1.76-1.71,3.47-3.88,5.14-6.5,1.67-2.62,3.21-5.28,4.64-8s2.57-5.07,3.43-7.07c.48,0,.88.05,1.21.14.33.1.5.48.5,1.14-.1.38-.26.79-.5,1.21-.24.43-.6,1.17-1.07,2.21-.76,1.52-1.81,3.57-3.14,6.14-1.33,2.57-2.9,5.16-4.71,7.78-1.81,2.62-3.76,4.83-5.85,6.64-2.1,1.81-4.28,2.71-6.57,2.71Z"/>
    <path class="cls-2" d="M553.1,553.9c3.52-6.76,6.85-13.54,9.99-20.35,3.14-6.8,6.33-13.25,9.57-19.35,1.9-3.43,3.5-5.83,4.78-7.21,1.28-1.38,3.02-2.07,5.21-2.07.76,0,1.57.12,2.43.36.86.24,1.71.36,2.57.36.57,0,1-.05,1.28-.14-1.34.76-3.05,2.64-5.14,5.64-2.09,3-4.24,6.45-6.43,10.35-2.19,3.9-4.14,7.57-5.85,10.99,1.81-2.19,3.69-4.38,5.64-6.57,1.95-2.19,4.12-4.28,6.5-6.28,2.09-1.81,4.31-3.78,6.64-5.93,2.33-2.14,4.64-3.97,6.92-5.5,2.28-1.52,4.28-2.28,6-2.28.66,0,1.09.05,1.28.14,1.81.76,2.71,2,2.71,3.71,0,.57-.24,1.43-.71,2.57-1.24,3.24-2.83,6.55-4.78,9.92-1.95,3.38-3.78,6.78-5.5,10.21,1.43-1.71,3.21-3.81,5.35-6.28,2.14-2.47,4.3-4.66,6.5-6.57,2.09-1.9,4.76-3.9,8-6,3.23-2.09,6.43-3.9,9.57-5.43,3.14-1.52,5.66-2.28,7.57-2.28.66,0,1.14.05,1.43.14-2.1,3.71-3.93,7.07-5.5,10.07s-3.17,6.19-4.78,9.57c-1.62,3.38-3.07,6.62-4.36,9.71-1.28,3.09-2.12,5.69-2.5,7.78-.28,1.24-.43,2.38-.43,3.43,0,1.52.29,2.52.86,3,.57.48,1.19.71,1.86.71,1.9,0,3.78-.81,5.64-2.43,1.86-1.62,3.69-3.69,5.5-6.21,1.81-2.52,3.45-5.21,4.93-8.07,1.47-2.86,2.74-5.52,3.78-8,1.14,0,1.71.43,1.71,1.28-1.05,2.57-2.36,5.4-3.93,8.49-1.57,3.09-3.35,6.02-5.35,8.78-2,2.76-4.19,5.05-6.57,6.85-2.38,1.81-4.95,2.71-7.71,2.71-2,0-3.88-.66-5.64-2-1.76-1.33-2.64-3.81-2.64-7.42,0-3.9.93-7.8,2.78-11.71s3.78-7.47,5.78-10.71c.95-1.62,1.43-2.9,1.43-3.85,0-1.14-.57-1.71-1.71-1.71-.95,0-2.26.48-3.93,1.43-1.67.95-3.74,2.62-6.21,5-1.52,1.43-3.31,3.4-5.35,5.93-2.05,2.52-4.12,5.26-6.21,8.21-2.09,2.95-3.9,5.85-5.43,8.71-1.52,2.86-2.52,5.38-3,7.57-1.43,0-2.57-.59-3.43-1.78-.86-1.19-1.28-2.59-1.28-4.21v-.86c0-.29.05-.62.14-1,.48-2.95,1.24-5.45,2.28-7.5,1.05-2.05,2.23-4.45,3.57-7.21.66-1.24,1.43-2.69,2.28-4.36.86-1.66,1.62-3.28,2.29-4.85.66-1.57,1-2.88,1-3.93,0-.95-.38-1.43-1.14-1.43-.86,0-1.98.43-3.35,1.28-1.38.86-2.69,1.83-3.93,2.93-1.24,1.1-2.19,1.93-2.86,2.5-2.38,2.29-5.26,5.57-8.64,9.85-3.38,4.28-7.07,10.38-11.07,18.28-.57,1.05-1.24,1.69-2,1.93-.76.24-1.95.36-3.57.36-1.05,0-1.93.02-2.64.07-.71.05-1.45.26-2.21.64Z"/>
  </g>
  <g>
    <path class="cls-2" d="M708.45,572.25c-6.47,0-12.73-.88-18.78-2.64-6.04-1.76-11.47-4.35-16.28-7.78-4.81-3.43-8.62-7.62-11.42-12.56-2.81-4.95-4.21-10.57-4.21-16.85,0-4.57.69-8.64,2.07-12.21,1.38-3.57,3.09-6.54,5.14-8.92,2.05-2.38,4.09-4.19,6.14-5.43,2.05-1.24,3.73-1.86,5.07-1.86.95,0,1.43.29,1.43.86,0,.48-.24.86-.71,1.14-2.19,1.14-4.43,2.81-6.71,5-2.29,2.19-4.19,5.05-5.71,8.57-1.52,3.52-2.28,7.9-2.28,13.14,0,5.71,1.21,10.59,3.64,14.63,2.43,4.05,5.62,7.35,9.57,9.92,3.95,2.57,8.21,4.45,12.78,5.64s8.95,1.79,13.14,1.79c9.33,0,18.04-1.81,26.13-5.43,8.09-3.62,15.49-8.45,22.2-14.49,6.71-6.04,12.64-12.78,17.78-20.2,5.14-7.42,9.37-14.94,12.71-22.56,1.24-2.76,2.71-6.07,4.43-9.92,1.71-3.86,3.57-7.97,5.57-12.35,2-4.38,3.95-8.66,5.86-12.85,1.9-4.19,3.64-7.97,5.21-11.35,1.57-3.38,2.83-5.97,3.78-7.78-6.38.76-13.26,1.45-20.63,2.07-7.38.62-14.4,1.88-21.06,3.78-7.42,2.1-13.49,5.14-18.2,9.14-4.71,4-8.19,8.33-10.42,12.99-2.24,4.67-3.36,9.04-3.36,13.14,0,4.95,1.24,9.02,3.71,12.21,2.47,3.19,6.04,4.78,10.71,4.78,3.52,0,6.66-1.02,9.42-3.07,2.76-2.05,4.95-4.71,6.57-8,1.62-3.28,2.43-6.78,2.43-10.49,0-1.52-.14-2.81-.43-3.86-.29-1.05-.43-1.86-.43-2.43,0-.66.24-1,.71-1,.66,0,1.28.57,1.86,1.71.95,2.19,1.43,4.33,1.43,6.43,0,4.47-1.1,8.49-3.28,12.06-2.19,3.57-5,6.4-8.42,8.49-3.43,2.1-7.05,3.14-10.85,3.14-4.47,0-8.35-1.07-11.64-3.21-3.28-2.14-5.83-4.97-7.64-8.5-1.81-3.52-2.71-7.33-2.71-11.42,0-4.66,1.29-9.4,3.86-14.21,2.57-4.81,6.71-9.19,12.42-13.14,5.71-3.95,13.23-6.97,22.56-9.07,7.8-1.71,15.75-2.83,23.84-3.35,8.09-.52,15.23-1.07,21.42-1.64,3.33-5.14,6.04-8.4,8.14-9.78,2.09-1.38,4-2.07,5.71-2.07s3.07.48,4.07,1.43c1,.95,1.5,2.09,1.5,3.43,0,1.9-1.31,3.93-3.93,6.07-2.62,2.14-7.02,3.55-13.21,4.21-3.05,5.62-5.86,11.88-8.42,18.78-2.57,6.9-5.14,14.11-7.71,21.63-2.57,7.52-5.38,14.99-8.42,22.42-5.14,12.37-11.23,23.2-18.28,32.48-7.05,9.28-15.33,16.49-24.84,21.63-9.52,5.14-20.51,7.71-32.98,7.71ZM829.67,574.1c-6.66,0-13.11-2.07-19.35-6.21-6.24-4.14-11.54-11.02-15.92-20.63-1.9-4.28-3.45-8.61-4.64-12.99-1.19-4.38-2.07-8.47-2.64-12.28-.57-3.81-.86-6.95-.86-9.42,0-3.05.33-4.76,1-5.14,1.81.19,4.83-.57,9.07-2.29,4.23-1.71,9.28-4.23,15.14-7.57s12.18-7.35,18.99-12.06c6.81-4.71,13.66-10.02,20.56-15.92,6.9-5.9,13.54-12.28,19.92-19.13,6.37-6.85,11.99-14.04,16.85-21.56.66-1.05,1.19-1.81,1.57-2.28.38-.48.76-.71,1.14-.71.48,0,.9.22,1.28.64.38.43.57.88.57,1.36,0,.76-.33,1.67-1,2.71-4.57,7.62-9.97,15.06-16.2,22.35-6.24,7.28-12.87,14.11-19.92,20.49-7.05,6.38-14.13,12.14-21.27,17.28-7.14,5.14-13.95,9.42-20.42,12.85-6.47,3.43-12.19,5.76-17.13,7-.29-.19-.43.29-.43,1.43,0,1.62.33,4.21,1,7.78.66,3.57,1.69,7.62,3.07,12.14,1.38,4.52,3.07,9.12,5.07,13.78,3.62,8.47,7.87,14.3,12.78,17.49,4.9,3.19,9.97,4.78,15.21,4.78,3.33,0,6.76-.67,10.28-2,3.52-1.33,6.76-3.17,9.71-5.5,2.95-2.33,5.23-5.07,6.85-8.21.57-.95,1-1.43,1.29-1.43.66,0,1,.38,1,1.14,0,.29-.07.59-.21.93-.14.33-.45,1.02-.93,2.07-1.33,2.66-3.55,5.5-6.64,8.49-3.09,3-6.76,5.52-10.99,7.57-4.24,2.05-8.83,3.07-13.78,3.07ZM811.83,444.03c2.38-.19,4.66-.88,6.85-2.07,2.19-1.19,3.28-2.5,3.28-3.93,0-.95-.48-1.43-1.43-1.43-.86,0-2.05.55-3.57,1.64-1.52,1.1-3.24,3.02-5.14,5.78Z"/>
    <path class="cls-2" d="M820.25,548.83c3.43-6.95,6.71-13.83,9.85-20.63,3.14-6.81,6.38-13.3,9.71-19.49,1.9-3.43,3.52-5.83,4.85-7.21,1.33-1.38,3.09-2.07,5.28-2.07.76,0,1.57.12,2.43.36.86.24,1.71.36,2.57.36.57,0,1-.05,1.29-.14-1.34.76-3.07,2.64-5.21,5.64-2.14,3-4.31,6.45-6.5,10.35-2.19,3.9-4.14,7.57-5.85,10.99,1.81-2.19,3.71-4.38,5.71-6.57,2-2.19,4.19-4.28,6.57-6.28,2.29-2,5.02-4.07,8.21-6.21,3.19-2.14,6.3-3.93,9.35-5.35,3.04-1.43,5.47-2.14,7.28-2.14.66,0,1.14.05,1.43.14-2.1,3.71-3.93,7.07-5.5,10.07-1.57,3-3.17,6.19-4.78,9.57-1.62,3.38-3.07,6.62-4.36,9.71-1.28,3.09-2.12,5.69-2.5,7.78-.29,1.24-.43,2.38-.43,3.43,0,1.52.29,2.52.86,3,.57.48,1.19.71,1.86.71,1.81,0,3.66-.81,5.57-2.43,1.9-1.62,3.73-3.69,5.5-6.21,1.76-2.52,3.4-5.21,4.92-8.07,1.52-2.86,2.81-5.52,3.86-8,1.14,0,1.71.43,1.71,1.28-1.05,2.57-2.36,5.4-3.93,8.49-1.57,3.09-3.33,6.02-5.28,8.78-1.95,2.76-4.12,5.05-6.5,6.85-2.38,1.81-4.95,2.71-7.71,2.71-1.9,0-3.88-.66-5.93-2-2.05-1.33-3.07-3.81-3.07-7.42,0-1.05.09-2.16.29-3.36.19-1.19.52-2.5,1-3.93.76-1.9,1.67-3.95,2.71-6.14,1.05-2.19,2.76-5.19,5.14-9,.66-1.05,1.07-1.86,1.21-2.43.14-.57.21-1.04.21-1.43,0-1.14-.52-1.71-1.57-1.71-.86,0-2.12.48-3.78,1.43-1.67.95-3.74,2.62-6.21,5-2.38,2.29-5.21,5.52-8.49,9.71-3.28,4.19-7.07,10.38-11.35,18.56-.67,1.24-1.41,1.9-2.21,2-.81.09-1.93.19-3.35.28-.95.09-1.86.17-2.71.22-.86.05-1.57.31-2.14.79Z"/>
    <path class="cls-2" d="M890.78,547.69c-3.9,0-6.78-1.4-8.64-4.21-1.86-2.81-2.78-6.21-2.78-10.21,0-3.71.71-7.57,2.14-11.57,1.52-4.38,3.64-8.38,6.35-11.99,2.71-3.62,5.71-6.54,8.99-8.78,3.28-2.23,6.54-3.35,9.78-3.35,3.9,0,6.78,1.33,8.64,4,1.86,2.67,2.78,6.05,2.78,10.14,0,2.86-.48,5.85-1.43,8.99-.95,3.14-2.24,6.24-3.86,9.28,1.24,1.24,3,1.86,5.28,1.86,2.66,0,4.95-.86,6.85-2.57,1.9-1.71,3.76-4.76,5.57-9.14,1.14,0,1.71.43,1.71,1.28-1.81,4.38-3.88,7.59-6.21,9.64-2.33,2.05-5.31,3.02-8.92,2.93-2.19,0-4-.62-5.43-1.86-2.67,4.38-5.83,8.07-9.5,11.07-3.66,3-7.45,4.5-11.35,4.5ZM892.78,544.55c2.19,0,4.38-.93,6.57-2.78,2.19-1.86,4.19-3.97,6-6.35,1.81-2.38,3.09-4.43,3.85-6.14-1.52-2.76-2.4-4.83-2.64-6.21-.24-1.38-.36-2.4-.36-3.07,0-1.81.48-3.19,1.43-4.14.95-.95,1.9-1.43,2.86-1.43,1.33,0,2.47.57,3.43,1.71.19-1.04.33-2.02.43-2.93.09-.9.14-1.78.14-2.64,0-2.47-.45-4.5-1.35-6.07-.91-1.57-2.31-2.36-4.21-2.36-2,0-4.09.86-6.28,2.57-2.19,1.71-4.26,4-6.21,6.85-1.95,2.86-3.64,6.05-5.07,9.57-1.24,2.95-2.19,5.74-2.86,8.35-.67,2.62-1,5.02-1,7.21,0,2.38.43,4.28,1.28,5.71.86,1.43,2.19,2.14,4,2.14Z"/>
    <path class="cls-2" d="M960.03,472.3c-1.24,1.81-2.62,4.09-4.14,6.85-1.52,2.76-2.93,5.43-4.21,8-1.29,2.57-2.26,4.52-2.93,5.86h13.14c0,.38-.17,1-.5,1.86-.34.86-.98,1.48-1.93,1.86h-12.42c-1.14,2.57-2.45,5.66-3.93,9.28-1.48,3.62-2.91,7.38-4.28,11.28-1.38,3.9-2.52,7.54-3.43,10.92-.91,3.38-1.36,6.12-1.36,8.21,0,2.86.38,4.98,1.14,6.35.76,1.38,2.14,2.07,4.14,2.07,2.57,0,5.04-1.26,7.42-3.78,2.38-2.52,4.64-5.69,6.78-9.5,2.14-3.81,4.02-7.61,5.64-11.42,1.14,0,1.71.43,1.71,1.28-1.05,2.57-2.33,5.38-3.85,8.42-1.52,3.05-3.26,5.98-5.21,8.78-1.95,2.81-4.14,5.09-6.57,6.85-2.43,1.76-5.12,2.64-8.07,2.64-4,0-6.71-1.12-8.14-3.35-1.43-2.23-2.14-5.12-2.14-8.64,0-2.57.48-5.69,1.43-9.35.95-3.66,2.12-7.45,3.5-11.35,1.38-3.9,2.73-7.54,4.07-10.92,1.33-3.38,2.38-5.97,3.14-7.78h-9.14c0-.76.33-1.57,1-2.43.66-.86,1.38-1.28,2.14-1.28h7.57c.76-1.52,1.64-3.43,2.64-5.71,1-2.29,2.36-4.81,4.07-7.57,1.43-2.28,3.26-4.09,5.5-5.43,2.24-1.33,4.64-2,7.21-2Z"/>
  </g>
  <g>
    <path class="cls-5" d="M247.75,494.91c-7.96,6.73-16.8,10.29-26.98,13.69-1.92.68-3.84,1.35-5.81,2.05-15.79,2.63-31.42,1.74-46.83-2.05,7.6,19.08,24.79,42.2,45.62,51.61,7.51,2.45,18.61,7.65,26.35,9.44-.11.28-3.86,3.59-10.56,4.64-2.57.35-5.31.55-8.22.59-1.42.04-2.84.09-4.3.13-18.94-2.71-37.49-17.88-48.42-31.29-7.65-10.11-14.09-20.92-19.78-31.99-1.1,1.74-2.21,3.48-3.34,5.27-8.43,13.12-16.85,25.67-28.24,36.96-1.13,1.14-2.26,2.27-3.43,3.44-10.06,9.55-20.42,17.19-35.61,17.67-6.9-.32-14.4-3.73-19.77-7.87,1.34-.32,5.33-1.38,6.71-1.72,30.44-8.09,47.31-28.61,62.63-52.19,1.75-2.61,3.51-5.22,5.27-7.82-1.02.32-2.04.64-3.09.97-1.37.42-2.74.84-4.15,1.28-1.34.41-2.69.83-4.07,1.26-20.41,5.37-41.18,3.92-60.64-3.52-13.66-6.92-24.66-17.04-29-30.67-2.32-10.49-2.08-19.32,3.79-28.69.2-.32.43-.64.67-.94,3.09-3.94,6.33-6.96,10.51-10.09l2.29-1.88c.27-.22.55-.44.84-.63,14.39-9.78,34.39-7.78,50.08-1.53,17.24,7.66,30.21,17.69,41.14,31,4.01,4.88,12.11,5.09,16.42.41,8.14-8.47,16.79-16.85,26.68-23.37,9.89-6.52,21.04-11.18,34.19-12.21,11.35-.41,20.38.22,29.57,6.24.4.26.79.56,1.15.86,7.94,6.77,12.86,13.36,14.15,23.37.35,16.53-3.49,25.43-15.79,37.56h0Z"/>
    <path class="cls-1" d="M247.75,494.91c-7.96,6.73-16.8,10.29-26.98,13.69-1.92.68-3.84,1.35-5.81,2.05-15.79,2.63-31.42,1.74-46.83-2.05,7.6,19.08,24.79,42.2,45.62,51.61,7.51,2.45,18.61,7.65,26.35,9.44-.11.28-3.86,3.59-10.56,4.64-2.57.35-5.31.55-8.22.59-1.42.04-2.84.09-4.3.13-18.94-2.71-37.49-17.88-48.42-31.29-7.65-10.11-14.09-20.92-19.78-31.99-1.1,1.74-2.21,3.48-3.34,5.27-8.43,13.12-16.85,25.67-28.24,36.96-1.13,1.14-2.26,2.27-3.43,3.44-10.06,9.55-20.42,17.19-35.61,17.67"/>
    <path class="cls-3" d="M235.57,445.45c6.77,5.59,9.29,10.27,10.64,18.38-1.41,9.12-6.39,15.35-13.71,21.7-20.16,11.7-38.49,12.74-62.07,8.31-6.91-1.42-11.77-2.75-14.59-4.01,3.47-6.89,8.7-12.25,14.03-18.06,2.64-2.89,5.19-5.84,7.69-8.83,14.62-13.96,36.63-26.51,58.02-17.5h0Z"/>
    <path class="cls-3" d="M115.7,462.95c2.5,2.99,5.04,5.94,7.69,8.83,5.33,5.81,10.56,11.17,14.03,18.06-2.81,1.25-7.68,2.59-14.59,4.01-23.58,4.44-41.92,3.39-62.07-8.31-7.32-6.35-12.3-12.58-13.71-21.7,1.35-8.1,3.87-12.79,10.64-18.38,21.38-9.01,43.4,3.54,58.02,17.5h0Z"/>
    <path class="cls-4" d="M155.35,553.64l8.06,4.22c1.7.89,1.54,3.14-.28,3.96l-8.63,3.9c-.44.2-.81.5-1.07.88l-5.08,7.34c-1.07,1.55-3.6,1.5-4.46-.09l-4.05-7.51c-.21-.38-.54-.7-.95-.92l-8.06-4.22c-1.7-.89-1.54-3.14.28-3.96l8.63-3.9c.44-.2.81-.5,1.07-.88l5.08-7.34c1.07-1.55,3.6-1.5,4.46.09l4.05,7.51c.21.38.54.7.95.92Z"/>
  </g>
</svg>